<svg width="48" height="48" viewBox="0 0 48 48" fill="none" xmlns="http://www.w3.org/2000/svg">
<path d="M13.1435 40.2543C13.1435 40.8219 12.6833 41.2821 12.1157 41.2821C11.5481 41.2821 11.0879 40.8219 11.0879 40.2543C11.0879 39.6867 11.5481 39.2266 12.1157 39.2266C12.6833 39.2266 13.1435 39.6867 13.1435 40.2543Z" fill="#F3F2F5"/>
<path d="M41.2236 40.9395C41.2236 41.444 40.8146 41.853 40.3101 41.853C39.8055 41.853 39.3965 41.444 39.3965 40.9395C39.3965 40.4349 39.8055 40.0259 40.3101 40.0259C40.8146 40.0259 41.2236 40.4349 41.2236 40.9395Z" fill="#F3F2F5"/>
<path fill-rule="evenodd" clip-rule="evenodd" d="M44.5773 4H6.70534V20.0825H5.31842C4.9687 20.0826 4.63336 20.2216 4.38611 20.469C4.13889 20.7163 4 21.0518 4 21.4014V42.681C4 43.0307 4.13889 43.3661 4.38611 43.6135C4.63336 43.8608 4.9687 43.9998 5.31842 44H18.912C19.2617 44 19.5972 43.861 19.8446 43.6137C20.0919 43.3663 20.2309 43.0308 20.2309 42.681V37.239H33.0787V35.4118H28.7484V30.8142H34.8996V44H45.7198V27.7759H44.5773V4ZM34.8996 27.7759V28.987H20.2309V26.4324H42.7501V27.7759H34.8996ZM20.2309 30.8142V35.4118H22.5337V30.8142H20.2309ZM24.3608 30.8142V35.4118H26.9212V30.8142H24.3608ZM18.912 20.0825H8.5325V5.82716H42.7501V24.6052H20.2309V21.4014C20.2309 21.0516 20.0919 20.7162 19.8446 20.4688C19.5972 20.2214 19.2617 20.0825 18.912 20.0825ZM18.4038 36.7645H5.82716V25.2048H18.4038V36.7645ZM5.82716 38.5916H18.4038V42.1728H5.82716V38.5916ZM18.4038 23.3776V21.9096H5.82716V23.3776H18.4038ZM43.892 42.1728H36.7261V39.7348H43.892V42.1728ZM43.892 37.9076H36.7261V32.3067H43.892V37.9076ZM36.7261 29.6031V30.4796H43.892V29.6031H36.7261Z" fill="#F3F2F5"/>
</svg>
