<svg width="24" height="24" viewBox="0 0 24 24" fill="none" xmlns="http://www.w3.org/2000/svg">
<rect x="0.5" y="0.5" width="23" height="23" rx="11.5" fill="#E10092"/>
<rect x="0.5" y="0.5" width="23" height="23" rx="11.5" stroke="#141414"/>
<path fill-rule="evenodd" clip-rule="evenodd" d="M12.0002 9.62549C10.343 9.62549 9.00006 10.9684 9.00006 12.6256C9.00006 14.2824 10.343 15.6257 12.0002 15.6257C13.657 15.6257 15.0003 14.2824 15.0003 12.6256C15.0003 10.9688 13.657 9.62549 12.0002 9.62549ZM13.7083 14.09C12.8998 15.0335 11.4796 15.1427 10.5361 14.3338C9.59221 13.5252 9.48345 12.1047 10.2924 11.1615C11.1005 10.2176 12.5211 10.1089 13.4646 10.9178C14.4077 11.7259 14.5169 13.1469 13.7083 14.09Z" fill="white"/>
<path fill-rule="evenodd" clip-rule="evenodd" d="M12.0001 11.1255C11.1717 11.1255 10.5004 11.7971 10.5001 12.6252V12.6259C10.5001 12.729 10.5841 12.8134 10.6876 12.8134C10.7911 12.8134 10.8751 12.729 10.8751 12.6259V12.6252C10.8754 12.0041 11.3787 11.5005 12.0001 11.5005C12.1036 11.5005 12.1876 11.4165 12.1876 11.313C12.1876 11.2095 12.1036 11.1255 12.0001 11.1255Z" fill="white"/>
<path fill-rule="evenodd" clip-rule="evenodd" d="M17.0599 9.26583L15.4346 8.99469L14.9197 7.7069C14.7476 7.27751 14.3373 7 13.8753 7H10.1252C9.66318 7 9.25292 7.27751 9.08041 7.70727L8.5659 8.99469L6.94097 9.26583C6.3957 9.3562 6.00006 9.82272 6.00006 10.3751V16.0003C6.00006 16.6206 6.50483 17.1253 7.1251 17.1253H16.8754C17.4957 17.1253 18.0005 16.6206 18.0005 16.0003V10.3751C18.0005 9.82272 17.6048 9.3562 17.0599 9.26583ZM17.2504 16.0003C17.2504 16.2077 17.0828 16.3753 16.8754 16.3753H7.1251C6.91772 16.3753 6.75009 16.2077 6.75009 16.0003V10.3751C6.75009 10.1917 6.88284 10.0354 7.0636 10.0053L9.10516 9.66521L9.77681 7.98591C9.83419 7.84378 9.97182 7.75002 10.1252 7.75002H13.8753C14.0283 7.75002 14.166 7.8434 14.2233 7.98591L14.895 9.66521L16.9369 10.0053C17.1177 10.0354 17.2504 10.1917 17.2504 10.3751V16.0003Z" fill="white"/>
</svg>
