<svg width="24" height="24" viewBox="0 0 24 24" fill="none" xmlns="http://www.w3.org/2000/svg">
<rect x="0.5" y="0.5" width="23" height="23" rx="11.5" stroke="#F3CBE3"/>
<path d="M6.95605 8.81152H7.88926V18.098H15.5881V8.81152H16.5213V19.0144H6.95605V8.81152Z" fill="#F3CBE3"/>
<path fill-rule="evenodd" clip-rule="evenodd" d="M6.6377 8.49268H8.20858V17.7791H15.2697V8.49268H16.8406V19.3333H6.6377V8.49268ZM7.27538 9.13036V18.6956H16.2029V9.13036H15.9074V18.4168H7.5709V9.13036H7.27538Z" fill="#F3CBE3"/>
<path d="M17.1589 7.53613V6.89845H6.31836V7.53613H17.1589Z" fill="#F3CBE3"/>
<path fill-rule="evenodd" clip-rule="evenodd" d="M6 7.85498H17.4783V6.57962H6V7.85498Z" fill="#F3CBE3"/>
<path d="M13.9706 5.62303V4.98535H9.50684V5.62303H13.9706Z" fill="#F3CBE3"/>
<path fill-rule="evenodd" clip-rule="evenodd" d="M9.18848 4.6665H14.2899V5.94187H9.18848V4.6665Z" fill="#F3CBE3"/>
<path d="M12.0576 16.4637H11.4199V10.0869H12.0576V16.4637Z" fill="#F3CBE3"/>
<path fill-rule="evenodd" clip-rule="evenodd" d="M11.1016 9.76807H12.3769V16.7826H11.1016V9.76807Z" fill="#F3CBE3"/>
<path d="M9.50684 16.4638H10.1419L10.1445 11.3623H9.50947L9.50684 16.4638Z" fill="#F3CBE3"/>
<path fill-rule="evenodd" clip-rule="evenodd" d="M9.19144 11.0435H10.4642L10.4612 16.7826H9.18848L9.19144 11.0435Z" fill="#F3CBE3"/>
<path d="M13.9707 16.4638H13.333V11.3623H13.9707V16.4638Z" fill="#F3CBE3"/>
<path fill-rule="evenodd" clip-rule="evenodd" d="M13.0146 11.0435H14.29V16.7826H13.0146V11.0435Z" fill="#F3CBE3"/>
</svg>
