<svg width="18" height="18" viewBox="0 0 18 18" fill="none" xmlns="http://www.w3.org/2000/svg">
<path d="M3.32617 5.41302H4.37602V15.8603H13.0372V5.41302H14.087V16.8913H3.32617V5.41302Z" fill="currentColor"/>
<path fill-rule="evenodd" clip-rule="evenodd" d="M2.96729 5.05432H4.73453V15.5016H12.6783V5.05432H14.4455V17.25H2.96729V5.05432ZM3.68468 5.77171V16.5326H13.7282V5.77171H13.3957V16.219H4.01714V5.77171H3.68468Z" fill="currentColor"/>
<path d="M14.8043 3.97827V3.26088H2.60864V3.97827H14.8043Z" fill="currentColor"/>
<path fill-rule="evenodd" clip-rule="evenodd" d="M2.25 4.33698H15.163V2.90219H2.25V4.33698Z" fill="currentColor"/>
<path d="M11.2173 1.82609V1.1087H6.19556V1.82609H11.2173Z" fill="currentColor"/>
<path fill-rule="evenodd" clip-rule="evenodd" d="M5.83691 0.75H11.576V2.18478H5.83691V0.75Z" fill="currentColor"/>
<path d="M9.06529 14.0218H8.3479V6.84784H9.06529V14.0218Z" fill="currentColor"/>
<path fill-rule="evenodd" clip-rule="evenodd" d="M7.98901 6.48914H9.4238V14.3804H7.98901V6.48914Z" fill="currentColor"/>
<path d="M6.19556 14.0217H6.90998L6.91295 8.28259H6.19852L6.19556 14.0217Z" fill="currentColor"/>
<path fill-rule="evenodd" clip-rule="evenodd" d="M5.84025 7.92389H7.27207L7.26873 14.3804H5.83691L5.84025 7.92389Z" fill="currentColor"/>
<path d="M11.2174 14.0217H10.5V8.28259H11.2174V14.0217Z" fill="currentColor"/>
<path fill-rule="evenodd" clip-rule="evenodd" d="M10.1414 7.92389H11.5761V14.3804H10.1414V7.92389Z" fill="currentColor"/>
</svg>
