<svg width="24" height="24" viewBox="0 0 24 24" fill="none" xmlns="http://www.w3.org/2000/svg">
<rect x="0.5" y="0.5" width="23" height="23" rx="11.5" stroke="#F3CBE3"/>
<path d="M16.2305 6.1606L14.3154 5.05713L8.21777 15.6439L10.1329 16.7474L16.2305 6.1606Z" fill="#F3CBE3"/>
<path fill-rule="evenodd" clip-rule="evenodd" d="M14.2084 4.6665L16.6194 6.05567L10.2362 17.1383L7.8252 15.7492L14.2084 4.6665ZM14.4186 5.44809L8.60665 15.539L10.0259 16.3567L15.838 6.26586L14.4186 5.44809Z" fill="#F3CBE3"/>
<path d="M7.75251 16.6133L7.64551 18.7917L9.4824 17.61L7.75251 16.6133Z" fill="#F3CBE3"/>
<path fill-rule="evenodd" clip-rule="evenodd" d="M7.49027 16.1313L10.0328 17.5963L7.33301 19.3331L7.49027 16.1313ZM8.01591 17.0947L7.95917 18.2498L8.9332 17.6232L8.01591 17.0947Z" fill="#F3CBE3"/>
</svg>
