<svg width="12" height="12" viewBox="0 0 12 12" fill="none" xmlns="http://www.w3.org/2000/svg">
<path d="M6.95709 1.81787L7.41481 2.08471L3.71955 8.55637L4.50034 9.02689L8.1956 2.55525L8.65332 2.8221L4.6938 9.75591L2.99756 8.75169L6.95709 1.81787Z" fill="white"/>
<path fill-rule="evenodd" clip-rule="evenodd" d="M6.8786 1.52686L7.70268 2.00728L4.00591 8.48156L4.42339 8.73315L8.1171 2.26423L8.9412 2.74466L4.77066 10.048L2.70947 8.82772L6.8786 1.52686ZM7.03467 2.1087L3.28474 8.67549L4.61602 9.46364L8.36454 2.89934L8.27319 2.84609L4.57637 9.32045L3.43228 8.63098L7.12603 2.16196L7.03467 2.1087Z" fill="white"/>
<path d="M2.71631 9.55664L2.71631 11.1469L4.14272 10.4047L2.71631 9.55664Z" fill="white"/>
<path fill-rule="evenodd" clip-rule="evenodd" d="M2.50439 9.18408L4.57848 10.4173L2.50439 11.4964L2.50439 9.18408ZM2.92845 9.92957L2.92845 10.7978L3.70719 10.3926L2.92845 9.92957Z" fill="white"/>
<path d="M7.75 0.100098L9.7976 1.28228L9.32473 2.10132L7.27713 0.919138L7.75 0.100098Z" fill="white"/>
</svg>
