<svg width="32" height="32" viewBox="0 0 32 32" fill="none" xmlns="http://www.w3.org/2000/svg">
<path d="M14.463 12.3072C14.75 12.3072 14.9827 12.0745 14.9827 11.7875C14.9827 11.5005 14.75 11.2678 14.463 11.2678C14.176 11.2678 13.9434 11.5005 13.9434 11.7875C13.9434 12.0745 14.176 12.3072 14.463 12.3072Z" fill="#F3F2F5"/>
<path d="M17.9915 11.7875C17.9915 12.0745 17.7588 12.3072 17.4718 12.3072C17.1848 12.3072 16.9521 12.0745 16.9521 11.7875C16.9521 11.5005 17.1848 11.2678 17.4718 11.2678C17.7588 11.2678 17.9915 11.5005 17.9915 11.7875Z" fill="#F3F2F5"/>
<path fill-rule="evenodd" clip-rule="evenodd" d="M19.6179 8.58447L18.8288 9.72822C19.0176 9.86908 19.1961 10.0241 19.3625 10.1924C19.8024 10.6368 20.1498 11.1641 20.3847 11.7437C20.6195 12.3232 20.7371 12.9436 20.7307 13.5689L20.7237 14.249H11.2768L11.2698 13.5689C11.2634 12.9436 11.3809 12.3232 11.6158 11.7437C11.8506 11.1641 12.1981 10.6368 12.6379 10.1924C12.751 10.0781 12.8695 9.96998 12.9931 9.86823L12.1076 8.58441L13.239 7.80408L14.1721 9.15696L14.1786 9.15427C14.7557 8.91349 15.3749 8.78949 16.0002 8.78949C16.5503 8.78949 17.0955 8.88538 17.6116 9.07238L18.4867 7.80396L19.6179 8.58447ZM14.7078 10.4226C15.1173 10.2518 15.5565 10.1638 16.0002 10.1638C16.4439 10.1638 16.8832 10.2518 17.2926 10.4226C17.7022 10.5934 18.0736 10.8438 18.3857 11.1591C18.6978 11.4745 18.9444 11.8485 19.1109 12.2597C19.1917 12.4589 19.2528 12.6649 19.294 12.8747H12.7065C12.7476 12.6649 12.8088 12.4589 12.8895 12.2597C13.0561 11.8485 13.3026 11.4745 13.6147 11.1591C13.9268 10.8438 14.2984 10.5934 14.7078 10.4226Z" fill="#F3F2F5"/>
<path fill-rule="evenodd" clip-rule="evenodd" d="M11.3184 14.6216H20.7025V22.56H18.7217V24.3527H17.3473V22.56H14.652V24.3527H13.2776V22.56H11.3184V14.6216ZM19.3281 21.1857V15.9959H12.6927V21.1857H19.3281Z" fill="#F3F2F5"/>
<path d="M22.7913 14.6216H21.417V19.1255H22.7913V14.6216Z" fill="#F3F2F5"/>
<path d="M9.20801 14.6216H10.5823V19.1255H9.20801V14.6216Z" fill="#F3F2F5"/>
<path fill-rule="evenodd" clip-rule="evenodd" d="M1.33301 5.33325V26.5065H6.16033V27.0683C6.16033 27.2505 6.23274 27.4253 6.36161 27.5542C6.49047 27.6831 6.66526 27.7554 6.8475 27.7554C7.02976 27.7554 7.20452 27.6831 7.33341 27.5542C7.46227 27.4253 7.53469 27.2505 7.53469 27.0683V26.5065H24.3913V27.0683C24.3913 27.2505 24.4636 27.4253 24.5925 27.5542C24.7214 27.6831 24.8962 27.7554 25.0784 27.7554C25.2606 27.7554 25.4354 27.6831 25.5643 27.5542C25.6932 27.4253 25.7656 27.2505 25.7656 27.0683V26.5065H30.6663V5.33325H1.33301ZM29.292 6.70758H2.70734V25.1322H29.292V6.70758Z" fill="#F3F2F5"/>
</svg>
