<svg width="45" height="15" viewBox="0 0 45 15" fill="none" xmlns="http://www.w3.org/2000/svg">
<path d="M12.1824 14.1696L7.5816 7.0416L11.7936 0.324H7.8192L4.5792 5.5728H3.564V0.324H0V14.1696H3.564V8.9208H4.6656L7.884 14.1696H12.1824Z" fill="#E10092"/>
<path d="M13.6898 14.1696H17.2538V0.324H13.6898V14.1696Z" fill="#E10092"/>
<path d="M19.8492 14.1696H24.882C29.3964 14.1696 32.7228 11.2536 32.7228 7.2792C32.7228 3.2616 29.3964 0.324 24.882 0.324H19.8492V14.1696ZM24.8172 3.672C27.2796 3.672 28.8996 5.0976 28.8996 7.236C28.8996 9.396 27.2796 10.8216 24.8388 10.8216H23.5212V3.672H24.8172Z" fill="#E10092"/>
<path d="M44.5168 2.5272C43.48 1.0368 41.6224 0 39.2248 0C36.1576 0 33.9328 1.7928 33.9328 4.2768C33.9328 9.1584 40.6936 8.2728 40.6936 10.152C40.6936 10.8 40.132 11.1456 39.052 11.1456C37.7776 11.1456 36.6976 10.6272 35.8984 9.5256L33.3712 11.9016C34.2352 13.2624 35.8552 14.4936 38.9872 14.4936C42.2488 14.4936 44.5168 12.5712 44.5168 10.0008C44.5168 5.1624 37.756 5.9832 37.756 4.1904C37.756 3.6936 38.188 3.348 39.0736 3.348C40.4128 3.348 41.4928 4.0824 42.0976 4.9464L44.5168 2.5272Z" fill="#E10092"/>
</svg>
