<svg width="32" height="26" viewBox="0 0 32 26" fill="none" xmlns="http://www.w3.org/2000/svg">
<g clip-path="url(#clip0_74827_606122)">
<path d="M31.5 0.5V19.415H5.5918L5.47754 19.7578L3.71973 25.0557H0.5V0.5H31.5Z" fill="#E10092" stroke="#E10092"/>
<path d="M16.1834 15.6622L11.4989 4.36914H9.61805L4.93359 15.6622H6.61928L7.7904 12.7729H13.2201L14.3912 15.6622H16.1834ZM10.5052 6.06046L12.6523 11.3458H8.37595L10.5052 6.06046Z" fill="white"/>
<path d="M23.6103 12.168C23.7549 12.124 23.8963 12.0701 24.0335 12.0067C24.1684 11.9454 24.2945 11.8662 24.4082 11.7713C24.517 11.6801 24.6079 11.5697 24.6763 11.4455C24.7452 11.3208 24.7797 11.1746 24.7797 11.0069C24.7797 10.6499 24.6311 10.3715 24.3339 10.1715C24.0367 9.97156 23.6146 9.87157 23.0676 9.87157C22.8409 9.87228 22.6148 9.89497 22.3924 9.93932C22.1692 9.98168 21.9556 10.0648 21.7625 10.1844C21.5703 10.3055 21.4106 10.4715 21.2973 10.6682C21.1767 10.8725 21.1164 11.1316 21.1164 11.4454C21.1137 11.7511 21.1777 12.0538 21.3038 12.3324C21.4286 12.6054 21.593 12.8586 21.7915 13.0839C21.9939 13.3137 22.2202 13.5213 22.4667 13.7031C22.7056 13.8809 22.9548 14.0446 23.2129 14.1934C23.4401 14.3249 23.6741 14.4444 23.9139 14.5514C24.1335 14.6481 24.3166 14.7245 24.4631 14.7804L24.0366 15.6705C23.7351 15.5415 23.4283 15.4006 23.116 15.248C22.8049 15.096 22.502 14.928 22.2083 14.7448C21.9183 14.5642 21.6419 14.3627 21.3814 14.1418C21.1273 13.9273 20.9006 13.6825 20.7062 13.4129C20.5134 13.1441 20.361 12.8485 20.2539 12.5357C20.1441 12.2174 20.0892 11.8713 20.0892 11.4971C20.0892 11.1316 20.1376 10.8123 20.2346 10.5392C20.3251 10.2774 20.4619 10.0338 20.6383 9.82001C20.4014 9.54908 20.227 9.27601 20.115 9.0008C20.0011 8.71567 19.9441 8.4111 19.947 8.10416C19.9459 7.92773 19.9688 7.75197 20.0149 7.58166C20.059 7.42021 20.1435 7.27261 20.2604 7.15271C20.3788 7.03015 20.5436 6.93229 20.7546 6.85914C20.9657 6.78598 21.2392 6.74943 21.5752 6.74948H24.5019V5.31738H18.6484V4.36914H27.0668V5.31738H25.5615V7.69118H21.8465C21.7043 7.6885 21.5622 7.70257 21.4233 7.73311C21.3092 7.76106 21.2177 7.80299 21.1487 7.8589C21.0809 7.91321 21.0304 7.98605 21.0034 8.06854C20.9737 8.16352 20.9596 8.26264 20.9614 8.36211C20.9612 8.51173 20.9875 8.66022 21.0389 8.80075C21.0906 8.94267 21.1875 9.10178 21.3297 9.27809C21.5899 9.14544 21.867 9.04887 22.1533 8.99105C22.4626 8.92769 22.7776 8.89635 23.0934 8.89752C23.4517 8.89497 23.8089 8.93833 24.1562 9.02652C24.4857 9.11253 24.7721 9.24262 25.0154 9.41678C25.2574 9.58934 25.4546 9.81714 25.5905 10.0812C25.7304 10.35 25.8004 10.665 25.8004 11.0262C25.8004 11.3745 25.7412 11.6691 25.6228 11.9099C25.5136 12.1382 25.3624 12.3439 25.177 12.5163C25.0028 12.6766 24.8058 12.8103 24.5923 12.913C24.4008 13.0059 24.2046 13.0888 24.0044 13.1614L23.6103 12.168Z" fill="white"/>
</g>
<defs>
<clipPath id="clip0_74827_606122">
<rect width="32" height="26" fill="white"/>
</clipPath>
</defs>
</svg>
