<svg width="24" height="24" viewBox="0 0 24 24" fill="none" xmlns="http://www.w3.org/2000/svg">
<path fill-rule="evenodd" clip-rule="evenodd" d="M8.38582 2.6954L10.1452 5.7378H1.33301V20.602H5.19317V22.1667H5.88975H6.58629V20.602H18.2539V22.1667H18.9505H19.647V20.602H23.304V19.9066H23.333V5.7378H14.7131L16.4709 2.69819L15.2644 2.00279L13.1044 5.7378H11.7539L9.59226 2L8.38582 2.6954ZM21.4755 7.59217V18.7476H3.19053V7.59217H21.4755ZM13.542 12.988L11.4163 9.33333H13.8759L15.9997 12.9846L13.8775 16.6667H11.4218L13.542 12.988ZM8.66634 10.25L10.1373 12.9883L8.66734 15.75H10.8613L12.333 12.9851L10.8638 10.25H8.66634Z" fill="#8E81A1"/>
</svg>
