<svg width="24" height="24" viewBox="0 0 24 24" fill="none" xmlns="http://www.w3.org/2000/svg">
<path fill-rule="evenodd" clip-rule="evenodd" d="M10.1455 5.7378L8.38606 2.6954L9.5925 2L11.7542 5.7378H13.1046L15.2647 2.00279L16.4711 2.69819L14.7133 5.7378H23.3333V19.9066H23.3043V20.602H19.6472V22.1667H18.9507H18.2541V20.602H6.58653V22.1667H5.88999H5.19341V20.602H1.33325V5.7378H10.1455ZM13.5422 12.988L11.4165 9.33333H13.8761L15.9998 12.9846L13.8777 16.6667H11.422L13.5422 12.988ZM10.1375 12.9883L8.6665 10.25H10.8639L12.3332 12.9851L10.8615 15.75H8.6675L10.1375 12.9883Z" fill="#8E81A1"/>
<path fill-rule="evenodd" clip-rule="evenodd" d="M10.1455 5.7378L8.38606 2.6954L9.5925 2L11.7542 5.7378H13.1046L15.2647 2.00279L16.4711 2.69819L14.7133 5.7378H23.3333V19.9066H23.3043V20.602H19.6472V22.1667H18.9507H18.2541V20.602H6.58653V22.1667H5.88999H5.19341V20.602H1.33325V5.7378H10.1455ZM13.5422 12.988L11.4165 9.33333H13.8761L15.9998 12.9846L13.8777 16.6667H11.422L13.5422 12.988ZM10.1375 12.9883L8.6665 10.25H10.8639L12.3332 12.9851L10.8615 15.75H8.6675L10.1375 12.9883Z" fill="url(#paint0_linear_25852_42093)"/>
<defs>
<linearGradient id="paint0_linear_25852_42093" x1="12.3333" y1="12.0833" x2="12.3333" y2="22.1667" gradientUnits="userSpaceOnUse">
<stop stop-color="#E796C7"/>
<stop offset="1" stop-color="#F3CBE3"/>
</linearGradient>
</defs>
</svg>
