<svg width="24" height="25" viewBox="0 0 24 25" fill="none" xmlns="http://www.w3.org/2000/svg">
<path d="M22.5477 6.18389V4.8429L1.65415 4.8429V6.18389L22.5477 6.18389Z" fill="#F3F2F5"/>
<path fill-rule="evenodd" clip-rule="evenodd" d="M22.9967 4.38281V6.64399L1.20531 6.64399V4.38281L22.9967 4.38281ZM22.0989 5.303L2.10313 5.303V5.72381L22.0989 5.72381V5.303Z" fill="#F3F2F5"/>
<path d="M4.90477 19.2164C7.06131 19.2164 8.80953 17.4246 8.80953 15.2144C8.80953 13.0041 7.06131 11.2123 4.90477 11.2123C2.74822 11.2123 1 13.0041 1 15.2144C1 17.4246 2.74822 19.2164 4.90477 19.2164Z" fill="#E10092"/>
<path fill-rule="evenodd" clip-rule="evenodd" d="M8.88403 18.9227H22.5502V17.5817H9.76368C9.53513 18.0733 9.23764 18.5246 8.88403 18.9227Z" fill="#F3F2F5"/>
<path fill-rule="evenodd" clip-rule="evenodd" d="M9.47901 17.1216H22.9978V19.3828H7.86694L8.55079 18.613C8.87508 18.2479 9.14775 17.8342 9.35712 17.3838L9.47901 17.1216ZM10.0379 18.0418C9.96224 18.1858 9.88101 18.3261 9.7945 18.4626H22.1V18.0418H10.0379Z" fill="#F3F2F5"/>
<path fill-rule="evenodd" clip-rule="evenodd" d="M9.08044 11.2842C9.46789 11.6743 9.79885 12.1272 10.0589 12.6277H22.5478V11.2842H9.08044Z" fill="#F3F2F5"/>
<path fill-rule="evenodd" clip-rule="evenodd" d="M7.98621 10.8241H23V13.0878H9.79261L9.66592 12.8439C9.42735 12.3848 9.12389 11.9696 8.76915 11.6124L7.98621 10.8241ZM10.0552 11.7443C10.1505 11.8811 10.2404 12.0223 10.3245 12.1676H22.1022V11.7443H10.0552Z" fill="#F3F2F5"/>
</svg>
