<svg width="32" height="32" viewBox="0 0 32 32" fill="none" xmlns="http://www.w3.org/2000/svg">
<path d="M22.8061 3.86805V28.1321H9.20128V3.86805H22.8061ZM24.0073 2.66675H8V29.3334H24.0073V2.66675Z" fill="#F3F2F5"/>
<path d="M15.9905 27.6429C15.649 27.6429 15.3151 27.5417 15.0312 27.3519C14.7472 27.1622 14.5258 26.8925 14.3951 26.5769C14.2644 26.2614 14.2302 25.9142 14.2969 25.5792C14.3635 25.2442 14.5279 24.9365 14.7694 24.695C15.011 24.4535 15.3187 24.289 15.6537 24.2224C15.9886 24.1558 16.3358 24.1899 16.6514 24.3207C16.9669 24.4514 17.2367 24.6727 17.4264 24.9567C17.6162 25.2407 17.7174 25.5746 17.7174 25.9161C17.7169 26.3739 17.5348 26.8129 17.2111 27.1366C16.8873 27.4604 16.4484 27.6424 15.9905 27.6429ZM15.9905 25.3905C15.8866 25.3905 15.785 25.4213 15.6985 25.4791C15.6121 25.5368 15.5448 25.6189 15.505 25.7149C15.4652 25.811 15.4548 25.9167 15.475 26.0186C15.4954 26.1206 15.5454 26.2142 15.6189 26.2877C15.6924 26.3612 15.786 26.4113 15.888 26.4315C15.9899 26.4518 16.0957 26.4414 16.1917 26.4017C16.2877 26.3619 16.3698 26.2945 16.4275 26.2081C16.4853 26.1217 16.5161 26.0201 16.5161 25.9161C16.5161 25.7767 16.4608 25.643 16.3622 25.5444C16.2636 25.4459 16.1299 25.3905 15.9905 25.3905Z" fill="#F3F2F5"/>
<path d="M18.113 4.927H13.8945V6.1283H18.113V4.927Z" fill="#F3F2F5"/>
</svg>
