<svg width="24" height="24" viewBox="0 0 24 24" fill="none" xmlns="http://www.w3.org/2000/svg">
<path fill-rule="evenodd" clip-rule="evenodd" d="M2.22217 3H22.2222V23H2.22217V3ZM14.9907 8.34495V10.6748L9.4563 12.5834V10.6659L12.8286 9.50287L9.4563 8.30887V6.38542L14.9907 8.34495ZM5.50098 17.9218H13.9344V17.2448H15.3399V17.9218H18.9124V19.2758H15.3399V19.9528H13.9344V19.2758H5.50098V17.9218Z" fill="#8E81A1"/>
<path fill-rule="evenodd" clip-rule="evenodd" d="M2.22217 3H22.2222V23H2.22217V3ZM14.9907 8.34495V10.6748L9.4563 12.5834V10.6659L12.8286 9.50287L9.4563 8.30887V6.38542L14.9907 8.34495ZM5.50098 17.9218H13.9344V17.2448H15.3399V17.9218H18.9124V19.2758H15.3399V19.9528H13.9344V19.2758H5.50098V17.9218Z" fill="url(#paint0_linear_25852_47825)"/>
<defs>
<linearGradient id="paint0_linear_25852_47825" x1="12.2222" y1="13" x2="12.2222" y2="23" gradientUnits="userSpaceOnUse">
<stop stop-color="#E796C7"/>
<stop offset="1" stop-color="#F3CBE3"/>
</linearGradient>
</defs>
</svg>
