<svg width="39" height="39" viewBox="0 0 39 39" fill="none" xmlns="http://www.w3.org/2000/svg">
<path d="M29.3971 27.0022L19.1616 23.2379V23.2314L19.1524 23.2347L19.1432 23.2314V23.2379L8.9082 27.0022V29.2795L19.1524 25.5115L29.3971 29.2795V27.0022Z" fill="currentColor"/>
<path fill-rule="evenodd" clip-rule="evenodd" d="M25.5377 15.3865C25.5377 18.905 22.6853 21.7574 19.1668 21.7574C15.6483 21.7574 12.7959 18.905 12.7959 15.3865C12.7959 11.868 15.6483 9.01556 19.1668 9.01556C22.6853 9.01556 25.5377 11.868 25.5377 15.3865ZM23.81 15.3865C23.81 17.9508 21.7312 20.0297 19.1668 20.0297C16.6025 20.0297 14.5236 17.9508 14.5236 15.3865C14.5236 12.8221 16.6025 10.7433 19.1668 10.7433C21.7312 10.7433 23.81 12.8221 23.81 15.3865Z" fill="currentColor"/>
<path fill-rule="evenodd" clip-rule="evenodd" d="M19.1667 38.3333C29.7521 38.3333 38.3333 29.7521 38.3333 19.1667C38.3333 8.58124 29.7521 0 19.1667 0C8.58124 0 0 8.58124 0 19.1667C0 29.7521 8.58124 38.3333 19.1667 38.3333ZM19.1667 36.6056C28.7979 36.6056 36.6056 28.7979 36.6056 19.1667C36.6056 9.53542 28.7979 1.7277 19.1667 1.7277C9.53542 1.7277 1.7277 9.53542 1.7277 19.1667C1.7277 28.7979 9.53542 36.6056 19.1667 36.6056Z" fill="currentColor"/>
</svg>
