<svg width="24" height="24" viewBox="0 0 24 24" fill="none" xmlns="http://www.w3.org/2000/svg">
<path fill-rule="evenodd" clip-rule="evenodd" d="M12 3C7.05 3 3 7.05 3 12C3 16.95 7.05 21 12 21C16.95 21 21 16.95 21 12C21 7.05 16.95 3 12 3ZM12 19.2C8.04 19.2 4.8 15.96 4.8 12C4.8 8.04 8.04 4.8 12 4.8C15.96 4.8 19.2 8.04 19.2 12C19.2 15.96 15.96 19.2 12 19.2ZM12 7.5C9.48 7.5 7.5 9.48 7.5 12C7.5 14.52 9.48 16.5 12 16.5C14.52 16.5 16.5 14.52 16.5 12C16.5 9.48 14.52 7.5 12 7.5Z" fill="#F3CBE3"/>
</svg>
