<svg width="32" height="32" viewBox="0 0 32 32" fill="none" xmlns="http://www.w3.org/2000/svg">
<path fill-rule="evenodd" clip-rule="evenodd" d="M16.0043 24.8013C15.1815 24.8013 14.5146 25.4682 14.5146 26.2909C14.5146 27.1135 15.1815 27.7805 16.0043 27.7805C16.8269 27.7805 17.4939 27.1135 17.4939 26.2909C17.4939 25.4682 16.8269 24.8013 16.0043 24.8013ZM15.7159 26.2909C15.7159 26.1317 15.845 26.0025 16.0043 26.0025C16.1635 26.0025 16.2925 26.1317 16.2925 26.2909C16.2925 26.4501 16.1635 26.5792 16.0043 26.5792C15.845 26.5792 15.7159 26.4501 15.7159 26.2909Z" fill="#F3F2F5"/>
<path fill-rule="evenodd" clip-rule="evenodd" d="M6.88419 2.66675H25.1245C25.5358 2.66675 25.9304 2.83018 26.2213 3.12108C26.5122 3.41198 26.6757 3.80653 26.6757 4.21793V27.7822C26.6757 28.1936 26.5122 28.5882 26.2213 28.8791C25.9304 29.17 25.5358 29.3334 25.1245 29.3334H6.88419C6.47279 29.3334 6.07824 29.17 5.78734 28.8791C5.49644 28.5882 5.33301 28.1936 5.33301 27.7822V4.21793C5.33301 3.80653 5.49644 3.41198 5.78734 3.12108C6.07824 2.83018 6.47279 2.66675 6.88419 2.66675ZM25.3718 3.97064C25.3062 3.90504 25.2172 3.86815 25.1245 3.86805H6.88419C6.79142 3.86815 6.70249 3.90504 6.6369 3.97064C6.57131 4.03623 6.53441 4.12516 6.53431 4.21793V5.62158H25.4743V4.21793C25.4742 4.12516 25.4373 4.03623 25.3718 3.97064ZM25.4743 6.82288H6.53431V23.2575H25.4743V6.82288ZM6.53431 27.7822V24.4587H25.4743V27.7822C25.4742 27.875 25.4373 27.9639 25.3718 28.0295C25.3062 28.0951 25.2172 28.132 25.1245 28.1321H6.88419C6.79142 28.132 6.70249 28.0951 6.6369 28.0295C6.57131 27.9639 6.53441 27.875 6.53431 27.7822Z" fill="#F3F2F5"/>
</svg>
