<svg width="207" height="25" viewBox="0 0 207 25" fill="none" xmlns="http://www.w3.org/2000/svg">
<path d="M23.3411 0H0V7.00177H6.92762V24.2452H16.5647V7.00177H23.3411V0Z" fill="white"/>
<path d="M21.2332 24.2452H30.3055L35.3137 9.78822L40.4702 24.2452H49.7308L40.4702 0H30.3055L21.2332 24.2452Z" fill="white"/>
<path d="M47.7373 7.00177H54.625V24.2452H64.302V7.00177H71.0784V0H47.7373V7.00177Z" fill="white"/>
<path d="M68.8213 24.2452H77.8566L82.899 9.78822L88.0213 24.2452H97.3189L88.0213 0H77.8566L68.8213 24.2452Z" fill="white"/>
<path d="M109.439 24.2452H117.57V18.5982H120.884C127.812 18.5982 131.163 14.3429 131.163 8.96113C131.163 3.42816 127.136 0 121.186 0H109.442V24.2452H109.439ZM117.573 12.1611V6.89054H120.208C122.091 6.89054 123.032 7.98288 123.032 9.41175C123.032 11.1429 121.939 12.1611 120.02 12.1611H117.573ZM134.138 24.2452H151.946V17.2435H142.685V0H134.14V24.2452H134.138ZM154.504 24.2452H163.576L168.622 9.78822L173.741 24.2452H183.039L173.741 0H163.576L154.504 24.2452ZM179.388 0L188.121 17.6199V24.2452H196.931V17.5429L206.494 0H197.798L192.941 9.26059L188.461 0H179.388Z" fill="#E10092"/>
</svg>
