<svg width="24" height="24" viewBox="0 0 24 24" fill="none" xmlns="http://www.w3.org/2000/svg">
<path d="M23 12C23 18.0751 18.0751 23 12 23C5.92487 23 1 18.0751 1 12C1 5.92487 5.92487 1 12 1C18.0751 1 23 5.92487 23 12ZM3.2 12C3.2 16.8601 7.13989 20.8 12 20.8C16.8601 20.8 20.8 16.8601 20.8 12C20.8 7.13989 16.8601 3.2 12 3.2C7.13989 3.2 3.2 7.13989 3.2 12Z" fill="white"/>
<path fill-rule="evenodd" clip-rule="evenodd" d="M17.5417 7.8333C17.9444 8.23602 17.9444 8.88898 17.5417 9.2917L14.1042 12.7292L10.6667 16.1667C10.264 16.5694 9.61102 16.5694 9.2083 16.1667L6.4583 13.4167C6.05557 13.014 6.05557 12.361 6.4583 11.9583C6.86102 11.5556 7.51398 11.5556 7.9167 11.9583L9.9375 13.9791L16.0833 7.8333C16.486 7.43057 17.139 7.43057 17.5417 7.8333Z" fill="white"/>
</svg>
