<svg width="24" height="24" viewBox="0 0 24 24" fill="none" xmlns="http://www.w3.org/2000/svg">
<path d="M11.207 5.52148H12.6709L14.7344 2.00293L15.9238 2.67871L14.2568 5.52148H22.6885V8.95801H20.8574V7.32422H2.83105V18.8174H20.8574V17.5215H22.6885V20.6201H19.0547V22H17.6816V20.6201H6.17871V22H4.80566V20.6201H1V5.52148H9.62109L7.95312 2.67578L9.14258 2L11.207 5.52148ZM18.9658 9.26758C21.1939 9.26771 23 11.0458 23 13.2393C23 15.4328 21.1939 17.2108 18.9658 17.2109C16.7377 17.2109 14.9307 15.4328 14.9307 13.2393C14.9307 11.0457 16.7377 9.26758 18.9658 9.26758ZM18.9658 10.5635C17.4646 10.5635 16.2471 11.7613 16.2471 13.2393C16.2471 14.7172 17.4646 15.915 18.9658 15.915C20.467 15.9149 21.6836 14.7171 21.6836 13.2393C21.6836 11.7613 20.467 10.5636 18.9658 10.5635ZM19.6562 12.5625H20.7725V13.915H18.2832V11.0693H19.6562V12.5625Z" fill="#8E81A1"/>
</svg>
