<svg width="24" height="24" viewBox="0 0 24 24" fill="none" xmlns="http://www.w3.org/2000/svg">
<path fill-rule="evenodd" clip-rule="evenodd" d="M8.05281 2.6954L9.81224 5.7378H1V20.602H4.86016V22.1667H5.55674H6.25328V20.602H17.9209V22.1667H18.6174H19.314V20.602H22.971V19.9066H23V17.0005C22.0878 18.2147 20.6356 19 19 19C16.2386 19 14 16.7614 14 14C14 11.2386 16.2386 9 19 9C20.6356 9 22.0878 9.78534 23 10.9995V5.7378H14.38L16.1379 2.69819L14.9314 2.00279L12.7714 5.7378H11.4209L9.25925 2L8.05281 2.6954Z" fill="#8E81A1"/>
<path fill-rule="evenodd" clip-rule="evenodd" d="M8.05281 2.6954L9.81224 5.7378H1V20.602H4.86016V22.1667H5.55674H6.25328V20.602H17.9209V22.1667H18.6174H19.314V20.602H22.971V19.9066H23V17.0005C22.0878 18.2147 20.6356 19 19 19C16.2386 19 14 16.7614 14 14C14 11.2386 16.2386 9 19 9C20.6356 9 22.0878 9.78534 23 10.9995V5.7378H14.38L16.1379 2.69819L14.9314 2.00279L12.7714 5.7378H11.4209L9.25925 2L8.05281 2.6954Z" fill="url(#paint0_linear_25852_87088)"/>
<path d="M18.3516 11.8024H19.725V13.2953H20.8409V14.6475H18.3516V11.8024Z" fill="url(#paint1_linear_25852_87088)"/>
<path fill-rule="evenodd" clip-rule="evenodd" d="M23.0689 13.9719C23.0689 16.1655 21.2626 17.9437 19.0344 17.9437C16.8063 17.9437 15 16.1655 15 13.9719C15 11.7783 16.8063 10 19.0344 10C21.2626 10 23.0689 11.7783 23.0689 13.9719ZM21.7526 13.9719C21.7526 15.4498 20.5357 16.6479 19.0344 16.6479C17.5332 16.6479 16.3162 15.4498 16.3162 13.9719C16.3162 12.4939 17.5332 11.2958 19.0344 11.2958C20.5357 11.2958 21.7526 12.4939 21.7526 13.9719Z" fill="url(#paint2_linear_25852_87088)"/>
<defs>
<linearGradient id="paint0_linear_25852_87088" x1="12" y1="12.0833" x2="12" y2="22.1667" gradientUnits="userSpaceOnUse">
<stop stop-color="#E796C7"/>
<stop offset="1" stop-color="#F3CBE3"/>
</linearGradient>
<linearGradient id="paint1_linear_25852_87088" x1="19.5962" y1="11.8024" x2="19.5962" y2="14.6475" gradientUnits="userSpaceOnUse">
<stop stop-color="#E89DCA"/>
<stop offset="1" stop-color="#EAA7D0"/>
</linearGradient>
<linearGradient id="paint2_linear_25852_87088" x1="19.0344" y1="10" x2="19.0344" y2="17.9437" gradientUnits="userSpaceOnUse">
<stop stop-color="#E796C7"/>
<stop offset="1" stop-color="#EDB4D7"/>
</linearGradient>
</defs>
</svg>
