<svg width="24" height="24" viewBox="0 0 24 24" fill="none" xmlns="http://www.w3.org/2000/svg">
<path fill-rule="evenodd" clip-rule="evenodd" d="M22 2H2V22H22V2ZM19.0588 4H11.5294V5.63529H19.0588V4ZM11.5294 8.70588H19.0588V10.3412H11.5294V8.70588ZM19.0588 13.4118H4V15.0494H19.0588V13.4118ZM19.0588 18.1176V19.7553H4V18.1176H19.0588ZM4.48093 9.83302L9.48093 8.09021V6.05033L4.48093 4.30761V5.86765L7.93977 7.07034L4.48093 8.27301V9.83302Z" fill="#D9D9D9"/>
<path fill-rule="evenodd" clip-rule="evenodd" d="M22 2H2V22H22V2ZM19.0588 4H11.5294V5.63529H19.0588V4ZM11.5294 8.70588H19.0588V10.3412H11.5294V8.70588ZM19.0588 13.4118H4V15.0494H19.0588V13.4118ZM19.0588 18.1176V19.7553H4V18.1176H19.0588ZM4.48093 9.83302L9.48093 8.09021V6.05033L4.48093 4.30761V5.86765L7.93977 7.07034L4.48093 8.27301V9.83302Z" fill="url(#paint0_linear_25852_80432)"/>
<defs>
<linearGradient id="paint0_linear_25852_80432" x1="12" y1="12" x2="12" y2="22" gradientUnits="userSpaceOnUse">
<stop stop-color="#E796C7"/>
<stop offset="1" stop-color="#F3CBE3"/>
</linearGradient>
</defs>
</svg>
